<svg xmlns="http://www.w3.org/2000/svg" width="46.555" height="46.626" viewBox="0 0 46.555 46.626">
  <g id="attestation-icon" transform="translate(-564.588 -1474.005)">
    <path id="Path_181" data-name="Path 181" d="M611.133,1480.619a6.335,6.335,0,0,0-6.683-6.608q-16.587-.012-33.175,0a6.454,6.454,0,0,0-6.373,4.409c-.872,2.665.094,5.319,2.534,7.217a1.624,1.624,0,0,1,.4.525l-1.012-5.183c-.316-.2-.243-.731-.223-1.14a4.407,4.407,0,0,1,4.007-3.879.985.985,0,0,1,1.169,1.027c.021.355.008.713.008,1.07q0,19.555,0,39.11c0,.222.011.427.026.625a9.09,9.09,0,0,0,1.843,2.649l.008,0,1.934.189c4.985.006,34.723-.308,34.723-.308l.686-.584a3.493,3.493,0,0,1-.092-.755c.007-.5.217-1,.218-1.505Q611.149,1499.049,611.133,1480.619Zm-6.4,15.058c.312.039.578.463.865.712-.265.289-.52.817-.8.828-1.775.074-3.557.072-5.332-.008-.26-.011-.615-.54-.69-.881-.036-.164.46-.622.743-.649.9-.086,1.816-.031,2.725-.031v0A20.33,20.33,0,0,1,604.732,1495.677Zm-8.569-10.731c.187-.1.465-.017.7-.015s.516-.079.7.02a6.138,6.138,0,0,1,.9.7c-.293.3-.537.734-.892.862a2.213,2.213,0,0,1-1.395.007c-.391-.138-.681-.561-1.016-.859A7.841,7.841,0,0,1,596.162,1484.946Zm-1.673,5.319q4.094-.11,8.192,0c.408.011.8.526,1.2.808-.417.261-.82.715-1.253.746-1.379.1-2.768.036-4.154.036-1.346,0-2.7.057-4.035-.036-.4-.027-.764-.478-1.145-.734C593.695,1490.8,594.085,1490.276,594.49,1490.265Zm-9.147-5.3c1.137-.083,2.284-.033,3.427-.033v0c1.1,0,2.214-.068,3.307.037.389.037.737.5,1.1.765-.334.273-.66.771-1,.781q-3.426.1-6.856-.006c-.3-.01-.582-.56-.872-.86C584.748,1485.408,585.031,1484.988,585.343,1484.965Zm-7.222,0a10.209,10.209,0,0,1,1.776-.032,7.279,7.279,0,0,1,1.655.031c.341.081.606.478.905.733-.285.28-.552.776-.858.8a22.191,22.191,0,0,1-3.557-.008c-.267-.022-.609-.545-.681-.887C577.329,1485.443,577.822,1485.022,578.121,1484.968Zm.518,5.258q5.706,0,11.411,0c.627,0,1.261.021,1.261.867,0,.824-.651.759-1.2.761-1.941.006-3.883,0-5.825,0-1.9,0-3.8.005-5.706,0-.588,0-1.3.087-1.258-.822C577.36,1490.185,578.033,1490.226,578.64,1490.226Zm-.374,5.446c1.657-.076,3.322-.076,4.979,0,.324.016.626.494.938.759-.32.278-.612.745-.965.8a79.6,79.6,0,0,1-4.971,0c-.346-.052-.628-.53-.939-.815C577.627,1496.153,577.936,1495.687,578.266,1495.672Zm.118,5.307q5.052-.093,10.107,0c.373.007.738.518,1.106.8-.373.262-.736.733-1.12.751-1.74.082-3.486.036-5.23.036-1.625,0-3.253.047-4.874-.036-.366-.019-.709-.49-1.063-.753C577.666,1501.5,578.02,1500.986,578.383,1500.98Zm12.034,14.106a15.855,15.855,0,0,1-3.319,0c-.425-.048-.8-.568-1.234-.9a11.6,11.6,0,0,1-1.83.814c-.144.042-.484-.6-.819-1.032a3.641,3.641,0,0,1-.779.652,6.2,6.2,0,0,1-1.231.32,3.927,3.927,0,0,1-.232-1.289c.214-1.281.624-2.533.772-3.818a2.417,2.417,0,0,0-.568-1.689c-.2-.228-1.062-.151-1.4.1a2.034,2.034,0,0,0-.836,1.414c.034,1,.409,1.986.542,2.991.062.472.055,1.245-.214,1.411-.694.432-1.123-.2-1.25-.791a17.941,17.941,0,0,1-.653-4.144c.05-1.779,1.556-2.809,3.5-2.749,1.521.047,2.428,1.016,2.547,2.846a17.5,17.5,0,0,1-.1,2.179l2.3.753c1.784-.89,2.277-.706,2.733,1.352a11.158,11.158,0,0,1,1.965.033c.363.065.667.458,1,.7C591.016,1514.533,590.74,1515.054,590.418,1515.086Zm-3.233-17.855c-.341-.007-.672-.509-1.007-.781.362-.271.71-.751,1.088-.776,1.417-.093,2.844-.037,4.266-.037,1.383,0,2.77-.048,4.148.033.365.021.706.442,1.059.679-.34.306-.673.869-1.02.878C592.876,1497.3,590.029,1497.294,587.185,1497.231Zm5.422,5.3c-.352-.02-.68-.447-1.018-.687.33-.3.654-.856.991-.864q4.218-.1,8.439,0c.346.008.679.547,1.018.839-.33.249-.649.692-.992.712-1.422.081-2.852.034-4.278.035C595.378,1502.56,593.989,1502.608,592.606,1502.527Z" transform="translate(0)" fill="#fff" fill-rule="evenodd"/>
  </g>
</svg>
