<svg xmlns="http://www.w3.org/2000/svg" width="54.544" height="49.073" viewBox="0 0 54.544 49.073">
  <path id="cabs-icon" d="M394.989,1769.18H365.73c0,.508-.006,1.219,0,1.93a1.731,1.731,0,0,1-1.787,1.938,30.2,30.2,0,0,1-3.486,0,1.8,1.8,0,0,1-1.854-1.906c-.021-.386-.008-.775-.007-1.163,0-1.039.258-2.156-1.193-2.581-.31-.091-.554-.647-.7-1.037a27.115,27.115,0,0,1-1.365-13.95,10.838,10.838,0,0,1,3.2-5.794,7.594,7.594,0,0,0,.494-.582c.02-.024,0-.079,0-.306-1.351,0-2.7.018-4.055-.006-1.238-.022-1.777-.566-1.84-1.818-.026-.516-.024-1.034,0-1.55.054-1.249.592-1.788,1.824-1.839.43-.018.861,0,1.292-.006,2.114-.006,2.107,0,2.824,1.962a11.2,11.2,0,0,0,.676,1.241c.253-.875.368-1.457.587-2,.918-2.261,1.835-4.524,2.813-6.761,1.486-3.4,4.337-4.729,7.828-4.942a2.114,2.114,0,0,0,1.941-1.19,22.92,22.92,0,0,1,2.217-3.476,3.4,3.4,0,0,1,2.075-1.207,43.424,43.424,0,0,1,6.322,0,3.176,3.176,0,0,1,1.986,1.134,27.192,27.192,0,0,1,2.279,3.59,2.06,2.06,0,0,0,1.819,1.166,20.578,20.578,0,0,1,3.4.694,5.9,5.9,0,0,1,3.383,2.432,27.24,27.24,0,0,1,4.195,9.358,1.651,1.651,0,0,0,.566.922c.215-.544.471-1.075.636-1.633a1.539,1.539,0,0,1,1.667-1.29c.774.027,1.55,0,2.325.01a2.391,2.391,0,0,1,.764.1c.935.34,1.311,1.666,1,3.587a1.6,1.6,0,0,1-1.748,1.527c-1.366-.015-2.733,0-4.344,0,.345.43.525.691.741.918a11.753,11.753,0,0,1,3.507,8.871,73.886,73.886,0,0,1-1.02,8.823c-.234,1.373-.552,2.915-2.216,3.54-.213.08-.361.646-.344.977.256,4.986-1.1,4.17-4.379,4.205a7.045,7.045,0,0,1-1.032-.014,1.755,1.755,0,0,1-1.738-1.863C394.984,1770.472,394.989,1769.753,394.989,1769.18ZM362.7,1744.809a222.159,222.159,0,0,1,35.318-.009,30.711,30.711,0,0,0-3.314-8.988,3.149,3.149,0,0,0-2.344-1.751,64.564,64.564,0,0,0-16.71-.879c-2.481.141-4.95.561-7.41.944a2.543,2.543,0,0,0-1.633.848A29.008,29.008,0,0,0,362.7,1744.809ZM380.424,1753c-2.581,0-5.164-.016-7.745.006-1.333.012-1.658.458-1.272,1.642.28.857.624,1.695.854,2.564a1.754,1.754,0,0,0,2.03,1.483c3.226-.079,6.454-.028,9.681-.031,4,0,4,0,5.274-3.763.489-1.444.189-1.889-1.335-1.9C385.415,1752.991,382.919,1753,380.424,1753Zm-16.956,3.854c1.287,0,2.575-.025,3.861.008,1.143.029,1.423-.48,1.154-1.532-.452-1.767-1.118-2.321-2.991-2.33-1.5-.007-3,0-4.5,0-2.633,0-2.6,0-2.515,2.659.031.9.419,1.218,1.263,1.2C360.979,1756.838,362.223,1756.855,363.468,1756.855Zm33.648,0c1.2,0,2.405-.044,3.6.013,1.1.053,1.623-.355,1.508-1.49a5.386,5.386,0,0,1,0-1.029c.1-1.027-.41-1.366-1.376-1.35-1.887.031-3.776,0-5.664,0-1.868,0-2.651.662-3.024,2.469-.189.919.092,1.406,1.094,1.389C394.54,1756.839,395.828,1756.855,397.116,1756.856Z" transform="translate(-353.125 -1724.027)" fill="#fff" fill-rule="evenodd"/>
</svg>
