<svg xmlns="http://www.w3.org/2000/svg" width="77.954" height="40.804" viewBox="0 0 77.954 40.804">
  <path id="domestic-icon" d="M-1578.57-1586.258c.008-1.828-.89-3.1-3.321-3.754h-30.632a5.024,5.024,0,0,1-5.024,5.024,5.025,5.025,0,0,1-5.024-5.024h-30.638c-2.356.607-3.324,1.781-3.315,3.595.058,11.271.026,22.541.031,33.812,0,2.13,1.718,3.385,4.664,3.388q9.723.007,19.445,0l-.01.012h10.716a5.024,5.024,0,0,1,5.024-5.024,5.024,5.024,0,0,1,5.024,5.024h17.3l0,0q5.7,0,11.409-.006c2.556-.008,4.327-1.331,4.328-3.164C-1578.593-1563.674-1578.619-1574.966-1578.57-1586.258Zm-36.146,22.715h-28.629a1.517,1.517,0,0,1-1.517-1.517,1.517,1.517,0,0,1,1.517-1.517h28.629a1.517,1.517,0,0,1,1.517,1.517A1.517,1.517,0,0,1-1614.716-1563.543Zm0-4.665h-28.629a1.517,1.517,0,0,1-1.517-1.517,1.517,1.517,0,0,1,1.517-1.517h28.629a1.517,1.517,0,0,1,1.517,1.517A1.517,1.517,0,0,1-1614.716-1568.208Zm0-4.93h-28.629a1.517,1.517,0,0,1-1.517-1.517,1.517,1.517,0,0,1,1.517-1.517h28.629a1.517,1.517,0,0,1,1.517,1.517A1.517,1.517,0,0,1-1614.716-1573.138Zm17.992,10.268a6.788,6.788,0,0,1-6.788-6.788,6.788,6.788,0,0,1,6.788-6.788,6.789,6.789,0,0,1,6.788,6.788A6.788,6.788,0,0,1-1596.723-1562.87Z" transform="translate(1656.524 1590.012)" fill="#fff" fill-rule="evenodd"/>
</svg>
