<svg xmlns="http://www.w3.org/2000/svg" width="61.261" height="61.26" viewBox="0 0 61.261 61.26">
  <path id="flight-icon" d="M322.261,1658.606l-3.85-7.465c-.928.48-1.486,1.885-2.554.865-1.1-1.052.272-1.64.821-2.595l-7.428-3.832c1.52-1.1,2.744-2.6,5.113-1.86a30.224,30.224,0,0,0,5.705.843,1.663,1.663,0,0,0,1.25-.452c2.305-2.627,4.588-5.276,6.8-7.979a13.893,13.893,0,0,0,1.572-2.685,1.407,1.407,0,0,0-.617-1.971,30.121,30.121,0,0,0-3.659-2.075c-5.022-2.125-10.083-4.161-15.13-6.228-.3-.121-.6-.227-.975-.369a6.553,6.553,0,0,1,7.009-2.435,4.362,4.362,0,0,0,5.068-1.674c.863-1.117,1.829-1.153,2.561-.424.685.683.577,1.465-.34,2.516-.153.176-.29.366-.56.708,1.682.244,3.214.5,4.756.663.282.03.649-.25.9-.475.652-.6,1.261-1.239,1.886-1.865a1.535,1.535,0,1,1,2.226,2.106c-.208.234-.414.47-.771.875,2.641.374,5.112.753,7.594,1.04.334.039.77-.334,1.078-.606,2.437-2.153,4.82-4.368,7.3-6.47a8.484,8.484,0,0,1,2.63-1.412c1.306-.465,2.2.405,1.74,1.728a9.028,9.028,0,0,1-1.518,2.839c-2.013,2.4-4.125,4.714-6.258,7.006a2.062,2.062,0,0,0-.659,1.909c.362,2.218.669,4.445,1.029,6.883.376-.333.652-.582.934-.826a1.432,1.432,0,0,1,2.15.036,1.407,1.407,0,0,1-.017,2.143,18.217,18.217,0,0,1-1.7,1.705,1.878,1.878,0,0,0-.689,2.011c.252,1.247.415,2.513.65,3.983.465-.441.755-.761,1.089-1.025a1.427,1.427,0,0,1,2.062.1,1.362,1.362,0,0,1,.079,2.044,12.322,12.322,0,0,1-1.611,1.625,2.133,2.133,0,0,0-.779,2.5,12.889,12.889,0,0,1,.356,3.22,6.789,6.789,0,0,1-2.592,5.271c-.191-.475-.345-.861-.5-1.246-2.074-5.13-4.126-10.268-6.239-15.382a26.324,26.324,0,0,0-1.591-2.83,1.67,1.67,0,0,0-2.552-.692,30.642,30.642,0,0,0-3.548,2.464q-3.32,2.7-6.506,5.556a2.231,2.231,0,0,0-.65,1.626,49.028,49.028,0,0,0,.842,5.835,3.364,3.364,0,0,1-.742,3.208C323.007,1657.5,322.672,1658.042,322.261,1658.606Z" transform="translate(-1360.809 -892.878) rotate(-45)" fill="#fff" fill-rule="evenodd"/>
</svg>
