<svg xmlns="http://www.w3.org/2000/svg" width="66.36" height="35.222" viewBox="0 0 66.36 35.222">
  <g id="luxury-coach-icon" transform="translate(-407.159 -1491.171)">
    <path id="Path_183" data-name="Path 183" d="M453.58,1520.761H427.072a7.845,7.845,0,0,0-2.985-6.676,7.34,7.34,0,0,0-4.812-1.638,7.515,7.515,0,0,0-5.593,2.509,8.039,8.039,0,0,0-2.058,5.671c-1.461.262-3.792-1.318-4.279-3.439a6.981,6.981,0,0,1-.179-1.538q-.016-9.6,0-19.2a4.9,4.9,0,0,1,5.286-5.281q27.887,0,55.774,0a4.9,4.9,0,0,1,5.291,5.277q.006,9.641,0,19.283a4.84,4.84,0,0,1-3.541,4.859,7.814,7.814,0,0,1-.906.15,8.006,8.006,0,0,0-3.015-6.659,7.466,7.466,0,0,0-4.986-1.634C457.466,1512.569,453.548,1515.372,453.58,1520.761Zm6.3-15.3h10.859v-7.06c-3.489,0-6.909-.007-10.329.021a.713.713,0,0,0-.508.477C459.868,1501.051,459.879,1503.207,459.879,1505.458Zm-49.947-7.022v7.025h5.64v-7.025Zm13.948,7.044v-7.027H418.4v7.027Zm8.3,0v-7.017h-5.455v7.017Zm2.86-7.04v7.005h5.445v-7.005Zm8.289,0v7.019h5.48v-7.019Zm8.251,7.015h5.54V1498.4c-1.737,0-3.4-.013-5.06.02a.649.649,0,0,0-.459.437C451.568,1501.037,451.578,1503.214,451.578,1505.457Zm19.193,5.582c-1.315,0-2.549-.044-3.778.016a1.321,1.321,0,0,0-1.266,1.387,1.2,1.2,0,0,0,1.072,1.354c1.306.094,2.623.027,3.971.027Z" fill="#fff" fill-rule="evenodd"/>
    <path id="Path_184" data-name="Path 184" d="M447.906,1622.744a6.233,6.233,0,1,1-6.217,6.19A6.233,6.233,0,0,1,447.906,1622.744Z" transform="translate(-28.558 -108.817)" fill="#fff" fill-rule="evenodd"/>
    <path id="Path_185" data-name="Path 185" d="M696.647,1629.029a6.222,6.222,0,0,1-6.226,6.191,6.231,6.231,0,1,1,.014-12.463A6.174,6.174,0,0,1,696.647,1629.029Z" transform="translate(-229.108 -108.828)" fill="#fff" fill-rule="evenodd"/>
  </g>
</svg>
