<svg xmlns="http://www.w3.org/2000/svg" width="26.614" height="19.22" viewBox="0 0 26.614 19.22">
  <g id="mouse-scroll" transform="translate(-32.918 -420.201)">
    <path id="Subtraction_3" data-name="Subtraction 3" d="M18.614,19.22H8a8.009,8.009,0,0,1-8-8V8A8.009,8.009,0,0,1,8,0H18.614a8.009,8.009,0,0,1,8,8V9.354H11.389a1.927,1.927,0,0,0-1.9-1.665H5.724a1.922,1.922,0,1,0,0,3.844h3.76A1.926,1.926,0,0,0,11.4,9.738H26.614V11.22A8.009,8.009,0,0,1,18.614,19.22Z" transform="translate(32.918 420.201)" fill="#046e94"/>
  </g>
</svg>
