<svg xmlns="http://www.w3.org/2000/svg" width="20" height="19.412" viewBox="0 0 20 19.412">
  <g id="phone-white-icon" transform="translate(-762.877 -575.216)">
    <path id="Path_11" data-name="Path 11" d="M782.765,584.282c.905,5.675-3.816,10.346-9.53,10.346s-10.056-4.64-10.346-10.346c-.357-7.023,7.408-11.72,11.937-7.415C774.42,586.337,781.86,578.607,782.765,584.282Z" transform="translate(0)" fill="#fff" fill-rule="evenodd"/>
    <path id="Path_12" data-name="Path 12" d="M788.221,596.957a3.12,3.12,0,0,1,.185-1.19,1.039,1.039,0,0,1,.706-.711c.5-.12,1-.277,1.5-.416.263-.073.489.073.589.389q.461,1.455.916,2.914a.731.731,0,0,1-.227.8c-.251.207-.5.424-.754.617a.262.262,0,0,0-.1.3c.069.308.125.625.221.92a10.335,10.335,0,0,0,.951,2.151,4.835,4.835,0,0,0,.3.406.1.1,0,0,0,.143.031c.29-.16.583-.312.874-.468s.507-.057.674.263q.666,1.272,1.334,2.543a.753.753,0,0,1-.084.869q-.592.708-1.182,1.418a.747.747,0,0,1-.654.258,1.617,1.617,0,0,1-.994-.474,6.382,6.382,0,0,1-1.2-1.52,26.03,26.03,0,0,1-1.9-3.982,24.615,24.615,0,0,1-.928-2.744A9.374,9.374,0,0,1,788.221,596.957Z" transform="translate(-19.628 -16.443)" fill="#008ebb" fill-rule="evenodd"/>
  </g>
</svg>
