<?xml version="1.0" standalone="no"?>
<!DOCTYPE svg PUBLIC "-//W3C//DTD SVG 20010904//EN"
 "http://www.w3.org/TR/2001/REC-SVG-20010904/DTD/svg10.dtd">
<svg version="1.0" xmlns="http://www.w3.org/2000/svg"
 width="368.000000pt" height="401.000000pt" viewBox="0 0 368.000000 401.000000"
 preserveAspectRatio="xMidYMid meet">

<g transform="translate(0.000000,401.000000) scale(0.100000,-0.100000)"
fill="#000000" stroke="none">
<path d="M2523 3995 c-9 -24 15 -36 67 -33 37 3 45 6 45 23 0 17 -8 20 -53 23
-41 2 -54 0 -59 -13z"/>
<path d="M2320 3991 c-43 -12 -31 -36 20 -39 52 -3 76 9 67 32 -7 17 -42 20
-87 7z"/>
<path d="M2750 3971 c0 -15 11 -22 48 -30 26 -5 51 -6 56 -1 15 15 -1 37 -34
44 -54 10 -70 8 -70 -13z"/>
<path d="M2103 3949 c-34 -10 -44 -35 -18 -45 8 -3 34 0 57 7 79 25 40 62 -39
38z"/>
<path d="M2976 3932 c-16 -15 -1 -35 40 -54 48 -21 72 -15 61 15 -6 16 -92 49
-101 39z"/>
<path d="M1893 3880 c-74 -33 -45 -65 33 -35 31 12 44 22 42 33 -5 24 -27 25
-75 2z"/>
<path d="M3177 3833 c-16 -15 -5 -34 33 -59 37 -25 70 -27 70 -4 0 10 -77 70
-90 70 -4 0 -10 -3 -13 -7z"/>
<path d="M1685 3793 c-62 -33 -51 -65 15 -43 44 15 65 33 55 50 -9 14 -35 12
-70 -7z"/>
<path d="M1485 3687 c-41 -23 -52 -49 -24 -55 25 -5 89 37 89 59 0 25 -16 24
-65 -4z"/>
<path d="M3353 3684 c-8 -22 59 -89 81 -81 24 9 19 26 -18 63 -37 37 -54 42
-63 18z"/>
<path d="M1293 3573 c-43 -25 -55 -49 -29 -59 14 -6 96 42 96 56 0 4 -6 12
-12 18 -9 7 -25 3 -55 -15z"/>
<path d="M3504 3515 c-9 -21 36 -95 58 -95 25 0 23 29 -7 73 -27 39 -42 46
-51 22z"/>
<path d="M1098 3445 c-38 -26 -49 -50 -25 -58 17 -6 99 52 94 66 -7 21 -31 18
-69 -8z"/>
<path d="M907 3314 c-40 -27 -44 -47 -11 -51 24 -4 90 50 80 65 -11 18 -28 15
-69 -14z"/>
<path d="M3596 3311 c-10 -16 15 -102 31 -108 24 -9 31 16 19 65 -12 45 -36
66 -50 43z"/>
<path d="M723 3187 c-35 -23 -44 -57 -16 -57 22 0 83 48 83 66 0 20 -30 16
-67 -9z"/>
<path d="M3641 3086 c-7 -8 -11 -34 -9 -58 2 -36 7 -44 26 -46 20 -3 22 0 22
46 0 55 -19 83 -39 58z"/>
<path d="M533 3058 c-34 -24 -44 -58 -18 -58 25 0 85 44 85 63 0 24 -29 22
-67 -5z"/>
<path d="M347 2935 c-37 -26 -47 -48 -26 -60 16 -10 91 43 87 62 -5 26 -20 25
-61 -2z"/>
<path d="M3624 2846 c-13 -53 -10 -90 8 -94 19 -4 29 22 31 80 2 41 -29 53
-39 14z"/>
<path d="M169 2820 c-46 -24 -60 -42 -49 -60 8 -13 15 -12 47 6 44 25 62 49
48 63 -6 6 -23 3 -46 -9z"/>
<path d="M3573 2638 c-34 -45 -40 -114 -9 -102 18 7 51 88 41 103 -8 14 -20
14 -32 -1z"/>
<path d="M3441 2415 c-35 -40 -40 -65 -12 -65 23 0 75 66 67 85 -8 23 -21 18
-55 -20z"/>
<path d="M3272 2260 c-27 -20 -40 -35 -36 -45 9 -21 22 -19 66 12 37 25 46 52
22 60 -6 2 -29 -10 -52 -27z"/>
<path d="M3078 2153 c-41 -17 -53 -36 -34 -52 16 -14 101 27 101 49 0 20 -23
21 -67 3z"/>
<path d="M1911 2076 c-20 -23 11 -38 63 -31 36 6 46 11 46 26 0 16 -8 19 -49
19 -29 0 -53 -6 -60 -14z"/>
<path d="M2135 2080 c-12 -20 7 -30 61 -30 47 0 54 2 54 20 0 18 -7 20 -54 20
-30 0 -58 -4 -61 -10z"/>
<path d="M2833 2080 c-27 -11 -30 -28 -7 -37 27 -10 98 10 102 30 3 14 -4 17
-35 16 -21 0 -48 -4 -60 -9z"/>
<path d="M2362 2063 c2 -12 16 -20 43 -25 50 -8 77 -1 73 20 -2 13 -17 18 -61
20 -52 3 -58 1 -55 -15z"/>
<path d="M1722 2060 c-41 -10 -46 -15 -38 -36 5 -13 14 -15 44 -10 62 11 73
17 70 34 -4 20 -29 24 -76 12z"/>
<path d="M2590 2050 c0 -19 5 -21 58 -18 43 2 57 7 57 18 0 11 -14 16 -57 18
-53 3 -58 1 -58 -18z"/>
<path d="M1483 2010 c-22 -9 -31 -34 -15 -44 4 -2 29 1 55 7 35 8 47 15 47 29
0 14 -7 18 -32 17 -18 0 -43 -4 -55 -9z"/>
<path d="M1290 1968 c-50 -14 -65 -28 -48 -45 20 -20 103 6 103 32 0 23 -11
26 -55 13z"/>
<path d="M1060 1908 c-47 -13 -58 -25 -40 -42 22 -20 113 7 108 32 -4 21 -22
23 -68 10z"/>
<path d="M833 1835 c-32 -13 -43 -38 -24 -49 17 -11 101 27 101 46 0 22 -31
23 -77 3z"/>
<path d="M628 1754 c-26 -11 -38 -22 -38 -36 0 -18 4 -20 32 -14 41 8 80 34
75 49 -6 18 -28 18 -69 1z"/>
<path d="M428 1643 c-38 -26 -47 -46 -28 -58 16 -10 101 47 98 65 -5 24 -30
21 -70 -7z"/>
<path d="M251 1498 c-32 -33 -38 -52 -20 -64 14 -8 79 55 79 78 0 27 -24 22
-59 -14z"/>
<path d="M132 1348 c-20 -27 -43 -79 -37 -88 13 -21 35 -8 55 31 20 39 21 69
2 69 -5 0 -14 -6 -20 -12z"/>
<path d="M41 1136 c-7 -8 -13 -34 -14 -58 -3 -59 23 -59 42 0 18 59 2 94 -28
58z"/>
<path d="M13 923 c-17 -6 -17 -95 -1 -111 19 -19 38 6 38 53 0 43 -15 66 -37
58z"/>
<path d="M1706 797 c-30 -39 -33 -67 -8 -67 22 0 66 64 58 85 -9 23 -23 18
-50 -18z"/>
<path d="M33 683 c-9 -23 19 -98 37 -98 21 0 24 36 6 79 -16 39 -33 46 -43 19z"/>
<path d="M1570 610 c-32 -40 -34 -70 -7 -70 20 0 71 76 63 95 -9 24 -22 18
-56 -25z"/>
<path d="M115 480 c-9 -14 43 -100 60 -100 26 0 26 20 0 65 -26 44 -47 56 -60
35z"/>
<path d="M1433 430 c-33 -41 -38 -59 -18 -67 20 -7 74 50 75 80 0 26 -32 20
-57 -13z"/>
<path d="M245 291 c-8 -14 54 -81 76 -81 26 0 24 15 -8 56 -27 33 -56 44 -68
25z"/>
<path d="M1292 257 c-35 -36 -42 -67 -14 -67 22 0 75 67 68 86 -8 21 -19 17
-54 -19z"/>
<path d="M427 153 c-15 -15 -5 -30 33 -52 41 -23 70 -22 70 1 0 7 -19 23 -42
36 -47 24 -51 25 -61 15z"/>
<path d="M1118 109 c-24 -12 -38 -27 -38 -39 0 -26 16 -25 65 3 70 40 44 74
-27 36z"/>
<path d="M630 52 c0 -16 10 -22 51 -32 37 -9 54 -9 62 -1 18 18 -12 40 -66 47
-43 6 -47 5 -47 -14z"/>
<path d="M863 39 c-17 -17 -4 -39 22 -39 51 0 85 12 85 31 0 16 -8 19 -48 19
-26 0 -53 -5 -59 -11z"/>
</g>
</svg>
