<svg xmlns="http://www.w3.org/2000/svg" width="48.21" height="48.179" viewBox="0 0 48.21 48.179">
  <path id="travel-desk-icon" d="M510.189,1400.095c7.917.147,13.547,3.116,17.819,8.745a21.773,21.773,0,0,1,3.148,5.972,3.515,3.515,0,0,0,.977,1.41,7.927,7.927,0,0,1,2.9,6.315c-.013,1.843.129,3.707-.877,5.372a8.936,8.936,0,0,1-1.469,2.021,4.235,4.235,0,0,0-1.187,2.518c-1.014,5.039-3.4,9.2-7.845,11.967a8.223,8.223,0,0,1-2.5.724,3.207,3.207,0,0,1-1.115.006,2.336,2.336,0,0,0-2.347,1.132,4.925,4.925,0,0,1-3.987,1.983,7.19,7.19,0,0,1-4.509-.874,4.543,4.543,0,0,1,.547-8.093,6.5,6.5,0,0,1,7.119.592A5.765,5.765,0,0,1,518,1441.1a1.878,1.878,0,0,0,1.39.776c2.668.356,4.162-1.371,5.644-3.1a15.224,15.224,0,0,0,2.909-5.684c.244-.822.141-.989-.682-1.143a2.256,2.256,0,0,1-1.955-2.289c-.011-4.22-.019-8.44.014-12.659a2.27,2.27,0,0,1,.457-1.343,1.5,1.5,0,0,0,.135-1.955c-2.733-4.878-6.72-8.115-12.293-9-5.986-.952-11.028,1.052-15.039,5.555a32.624,32.624,0,0,0-2.509,3.6,1.352,1.352,0,0,0,.111,1.672,2.964,2.964,0,0,1,.5,1.544c.04,4.2.029,8.393.021,12.589a2.186,2.186,0,0,1-2.479,2.286,7,7,0,0,1-6.8-5.186,9.936,9.936,0,0,1,1.215-9.2c2.125-1.521,2.584-4.056,3.764-6.155a20.978,20.978,0,0,1,13.423-10.61A39.353,39.353,0,0,1,510.189,1400.095Z" transform="translate(-486.827 -1400.095)" fill="#fff" fill-rule="evenodd"/>
</svg>
