<svg xmlns="http://www.w3.org/2000/svg" width="29.967" height="40.656" viewBox="0 0 29.967 40.656">
  <g id="visa-icon" transform="translate(-484.926 -1149.728)">
    <path id="Path_163" data-name="Path 163" d="M484.926,1170.014q0-9.064,0-18.128a1.9,1.9,0,0,1,2.141-2.156q12.832,0,25.665,0a1.91,1.91,0,0,1,2.16,2.143q0,18.2,0,36.4a1.9,1.9,0,0,1-2.1,2.106q-12.882,0-25.763,0a1.885,1.885,0,0,1-2.1-2.094Q484.924,1179.152,484.926,1170.014Zm14.954,6.316a11.428,11.428,0,1,0-11.43-11.762A11.514,11.514,0,0,0,499.88,1176.33Zm.07,8.106h-8.817c-.148,0-.34-.051-.434.021-.213.164-.505.379-.526.6s.21.506.4.682c.116.106.374.074.568.074q8.743,0,17.486,0a2.033,2.033,0,0,0,.537-.035.635.635,0,0,0,.506-.738.626.626,0,0,0-.611-.6,4.087,4.087,0,0,0-.443-.006Zm-2.213-2.153h2.513c1.429,0,2.858,0,4.286,0,.529,0,.867-.335.785-.775-.089-.477-.434-.6-.877-.6q-6.7.007-13.4,0c-.611,0-.923.25-.91.714.012.448.3.661.9.661Q494.387,1182.285,497.737,1182.284Z" fill="#fff" fill-rule="evenodd"/>
    <path id="Path_164" data-name="Path 164" d="M692.386,1314.187c.158-1.293.3-2.528.469-3.761.014-.1.16-.272.247-.273,1.31-.017,2.621-.012,3.977-.012a11.337,11.337,0,0,1-1.053,3.86.355.355,0,0,1-.253.178C694.645,1314.192,693.516,1314.187,692.386,1314.187Z" transform="translate(-187.012 -144.601)" fill="#fff" fill-rule="evenodd"/>
    <path id="Path_165" data-name="Path 165" d="M538.882,1310.441l.52,4.017c-1.12,0-2.245,0-3.369-.008a.368.368,0,0,1-.258-.179,8.617,8.617,0,0,1-1.024-3.83Z" transform="translate(-44.914 -144.872)" fill="#fff" fill-rule="evenodd"/>
    <path id="Path_166" data-name="Path 166" d="M539.385,1255.931l-.517,4.021h-4.132a8.646,8.646,0,0,1,1.027-3.827.412.412,0,0,1,.3-.186C537.176,1255.926,538.289,1255.931,539.385,1255.931Z" transform="translate(-44.901 -95.734)" fill="#fff" fill-rule="evenodd"/>
    <path id="Path_167" data-name="Path 167" d="M696.507,1258.808h-4.135l-.52-4.026c.867,0,1.751.066,2.62-.02a1.093,1.093,0,0,1,1.309.875A10.166,10.166,0,0,1,696.507,1258.808Z" transform="translate(-186.531 -94.671)" fill="#fff" fill-rule="evenodd"/>
    <path id="Path_168" data-name="Path 168" d="M595.022,1255.076v4.02h-3.88a16.358,16.358,0,0,1,.5-3.8.358.358,0,0,1,.265-.208C592.931,1255.07,593.959,1255.076,595.022,1255.076Z" transform="translate(-95.747 -94.963)" fill="#fff" fill-rule="evenodd"/>
    <path id="Path_169" data-name="Path 169" d="M589.644,1310.277h3.934v4.033c-1.041,0-2.085.006-3.128-.01a.355.355,0,0,1-.248-.233C590.008,1312.826,589.833,1311.583,589.644,1310.277Z" transform="translate(-94.397 -144.724)" fill="#fff" fill-rule="evenodd"/>
    <path id="Path_170" data-name="Path 170" d="M644.132,1314.489v-4.017H648c-.049.632-.076,1.26-.151,1.883a18.077,18.077,0,0,1-.309,1.789.519.519,0,0,1-.36.33C646.181,1314.5,645.182,1314.489,644.132,1314.489Z" transform="translate(-143.514 -144.9)" fill="#fff" fill-rule="evenodd"/>
    <path id="Path_171" data-name="Path 171" d="M648.214,1260.283h-3.9v-4h3.363Z" transform="translate(-143.675 -96.056)" fill="#fff" fill-rule="evenodd"/>
    <path id="Path_172" data-name="Path 172" d="M644.187,1368.744v-3.935h2.857C646.809,1366.389,645.176,1368.754,644.187,1368.744Z" transform="translate(-143.564 -193.881)" fill="#fff" fill-rule="evenodd"/>
    <path id="Path_173" data-name="Path 173" d="M603.527,1202.161v3.9h-2.953A6.2,6.2,0,0,1,603.527,1202.161Z" transform="translate(-104.249 -47.265)" fill="#fff" fill-rule="evenodd"/>
    <path id="Path_174" data-name="Path 174" d="M599.72,1364.8h2.943v3.966C601.017,1367.912,600.372,1366.4,599.72,1364.8Z" transform="translate(-103.48 -193.878)" fill="#fff" fill-rule="evenodd"/>
    <path id="Path_175" data-name="Path 175" d="M644.189,1206.148v-3.878c1.647.835,2.283,2.329,2.948,3.878Z" transform="translate(-143.566 -47.363)" fill="#fff" fill-rule="evenodd"/>
    <path id="Path_176" data-name="Path 176" d="M554.667,1364.543c1,0,1.932-.008,2.863.012.1,0,.241.148.292.26.489,1.068.962,2.142,1.419,3.168C558.2,1367.938,555.545,1366.017,554.667,1364.543Z" transform="translate(-62.867 -193.64)" fill="#fff" fill-rule="evenodd"/>
    <path id="Path_177" data-name="Path 177" d="M677.046,1211.312c-1.011,0-1.893.011-2.774-.012a.536.536,0,0,1-.373-.274c-.5-1.043-.969-2.1-1.452-3.156A9.539,9.539,0,0,1,677.046,1211.312Z" transform="translate(-169.037 -52.41)" fill="#fff" fill-rule="evenodd"/>
    <path id="Path_178" data-name="Path 178" d="M559.339,1208.1c-.473,1.06-.944,2.129-1.433,3.19a.436.436,0,0,1-.313.219c-.895.018-1.79.01-2.8.01A10.4,10.4,0,0,1,559.339,1208.1Z" transform="translate(-62.976 -52.621)" fill="#fff" fill-rule="evenodd"/>
  </g>
</svg>
